<?xml version="1.0" encoding="utf-8"?>
<!-- Generator: Adobe Illustrator 24.0.1, SVG Export Plug-In . SVG Version: 6.00 Build 0)  -->
<svg version="1.1" id="Layer_1" xmlns="http://www.w3.org/2000/svg" xmlns:xlink="http://www.w3.org/1999/xlink" x="0px" y="0px"
	 viewBox="0 0 512 512" style="enable-background:new 0 0 512 512;" xml:space="preserve">
<style type="text/css">
	.st0{fill:none;stroke:#737373;stroke-width:32;stroke-miterlimit:10;}
	.st1{fill:#737373;}
</style>
<title>ionicons-v5-c</title>
<path class="st0" d="M64,256c0,106,86,192,192,192s192-86,192-192S362,64,256,64S64,150,64,256z"/>
<path class="st1" d="M117.2,265.3l114.4,69.1c5.1,3.1,11.7,1.4,14.8-3.7c1-1.7,1.5-3.6,1.5-5.6v-53.3l103.7,62.6
	c5.1,3.1,11.7,1.4,14.8-3.7c1-1.7,1.5-3.6,1.5-5.6V186.9c0-6-4.8-10.8-10.7-10.8c-2,0-3.9,0.5-5.6,1.5L248,240.2v-53.3
	c0-6-4.8-10.8-10.7-10.8c-2,0-3.9,0.5-5.6,1.5l-114.4,69.1c-5.1,3.1-6.8,9.8-3.6,15C114.5,263.1,115.7,264.4,117.2,265.3z"/>
</svg>
