<?xml version="1.0" encoding="utf-8"?>
<!-- Generator: Adobe Illustrator 24.0.1, SVG Export Plug-In . SVG Version: 6.00 Build 0)  -->
<svg version="1.1" id="Layer_1" xmlns="http://www.w3.org/2000/svg" xmlns:xlink="http://www.w3.org/1999/xlink" x="0px" y="0px"
	 viewBox="0 0 512 512" style="enable-background:new 0 0 512 512;" xml:space="preserve">
<style type="text/css">
	.st0{fill:none;stroke:#737373;stroke-width:32;stroke-miterlimit:10;}
	.st1{fill:#737373;}
</style>
<title>ionicons-v5-a</title>
<path class="st0" d="M256,448c106,0,192-86,192-192S362,64,256,64S64,150,64,256S150,448,256,448z"/>
<path class="st1" d="M308.8,310.6c0.9,0.9,2.1,1.4,3.3,1.4s2.4-0.5,3.3-1.4c14.3-14.3,22.3-33.7,22.3-53.9c0-20.2-8-39.6-22.3-53.9
	c-1.8-1.8-4.8-1.8-6.6,0c-1.8,1.8-1.8,4.8,0,6.6c12.5,12.5,19.6,29.5,19.6,47.3c0,17.7-7,34.7-19.6,47.3c-0.9,0.9-1.4,2.1-1.4,3.3
	C307.4,308.5,307.9,309.7,308.8,310.6L308.8,310.6z M277.2,342.8c1.7,1.5,3.8,2.3,6.1,2.3c1.4,0,2.7-0.3,3.9-0.9
	c1.6-0.7,3-1.9,4-3.4c1-1.5,1.5-3.3,1.5-5.1V176.2c0-2.4-0.9-4.7-2.6-6.4c-1.7-1.7-3.9-2.8-6.3-2.9c-2.4-0.1-4.7,0.7-6.6,2.3
	l-57.3,49.5h-36.2c-2.5,0-4.8,1-6.6,2.7c-1.7,1.8-2.7,4.1-2.7,6.6v56c0,2.5,1,4.8,2.7,6.6c1.8,1.7,4.1,2.7,6.6,2.7h36.2L277.2,342.8
	z"/>
</svg>
