<?xml version="1.0" encoding="utf-8"?>
<!-- Generator: Adobe Illustrator 24.0.1, SVG Export Plug-In . SVG Version: 6.00 Build 0)  -->
<svg version="1.1" id="Layer_1" xmlns="http://www.w3.org/2000/svg" xmlns:xlink="http://www.w3.org/1999/xlink" x="0px" y="0px"
	 viewBox="0 0 512 512" style="enable-background:new 0 0 512 512;" xml:space="preserve">
<style type="text/css">
	.st0{fill:none;stroke:#737373;stroke-width:32;stroke-miterlimit:10;}
	.st1{fill:#737373;}
</style>
<title>ionicons-v5-c</title>
<path class="st0" d="M448,256c0-106-86-192-192-192S64,150,64,256s86,192,192,192S448,362,448,256z"/>
<path class="st1" d="M394.8,246.7l-114.4-69.1c-5.1-3.1-11.7-1.4-14.8,3.7c-1,1.7-1.5,3.6-1.5,5.6v53.3l-103.7-62.6
	c-5.1-3.1-11.7-1.4-14.8,3.7c-1,1.7-1.5,3.6-1.5,5.6v138.3c0,6,4.8,10.8,10.7,10.8c2,0,3.9-0.5,5.6-1.5L264,271.8v53.3
	c0,6,4.8,10.8,10.7,10.8c2,0,3.9-0.5,5.6-1.5l114.4-69.1c5.1-3.1,6.8-9.8,3.6-15C397.5,248.9,396.3,247.6,394.8,246.7z"/>
</svg>
