<?xml version="1.0" encoding="utf-8"?>
<!-- Generator: Adobe Illustrator 24.0.1, SVG Export Plug-In . SVG Version: 6.00 Build 0)  -->
<svg version="1.1" id="Layer_1" xmlns="http://www.w3.org/2000/svg" xmlns:xlink="http://www.w3.org/1999/xlink" x="0px" y="0px"
	 viewBox="0 0 512 512" style="enable-background:new 0 0 512 512;" xml:space="preserve">
<style type="text/css">
	.st0{fill:none;stroke:#737373;stroke-width:32;stroke-miterlimit:10;}
	.st1{fill:#737373;}
	.st2{fill:none;stroke:#737373;stroke-width:32;stroke-linecap:round;stroke-miterlimit:10;}
</style>
<title>ionicons-v5-c</title>
<path class="st0" d="M448,256c0-106-86-192-192-192S64,150,64,256s86,192,192,192S448,362,448,256z"/>
<g>
	<path class="st1" d="M153.5,325.3l101.1-61.1c4.5-2.8,6-8.7,3.2-13.2c-0.8-1.3-1.9-2.4-3.2-3.2l-101.1-61.1
		c-4.5-2.7-10.4-1.2-13.1,3.3c-0.9,1.5-1.4,3.2-1.4,5v122.2c0,5.3,4.2,9.6,9.5,9.6C150.3,326.7,152,326.2,153.5,325.3z"/>
	<line class="st2" x1="296.5" y1="199.8" x2="296.5" y2="312.9"/>
	<line class="st2" x1="367.2" y1="199.8" x2="367.2" y2="312.9"/>
</g>
</svg>
