<?xml version="1.0" encoding="utf-8"?>
<!-- Generator: Adobe Illustrator 24.0.1, SVG Export Plug-In . SVG Version: 6.00 Build 0)  -->
<svg version="1.1" id="Layer_1" xmlns="http://www.w3.org/2000/svg" xmlns:xlink="http://www.w3.org/1999/xlink" x="0px" y="0px"
	 viewBox="0 0 512 512" style="enable-background:new 0 0 512 512;" xml:space="preserve">
<style type="text/css">
	.st0{fill:none;stroke:#737373;stroke-width:32;stroke-miterlimit:10;}
	.st1{fill:#737373;}
</style>
<title>ionicons-v5-a</title>
<path class="st0" d="M256,64C150,64,64,150,64,256s86,192,192,192s192-86,192-192S362,64,256,64z"/>
<path class="st1" d="M332.3,364.7c-1.9,1.8-4.9,1.8-6.7,0c-1.8-1.8-1.9-4.8,0-6.7c56.2-56.2,56.2-147.8,0-204v0
	c-0.9-0.9-1.4-2.1-1.4-3.4c0-1.3,0.5-2.5,1.4-3.4c0.9-0.9,2.1-1.4,3.4-1.4c1.3,0,2.5,0.5,3.4,1.4
	C392.2,207.3,392.2,304.8,332.3,364.7L332.3,364.7z M271.7,310.9c0.9,0.9,2.1,1.4,3.4,1.4s2.5-0.5,3.4-1.4
	c14.6-14.6,22.7-34.3,22.7-54.9c0-20.6-8.2-40.3-22.7-54.9c-1.9-1.8-4.9-1.8-6.7,0c-1.8,1.8-1.9,4.8,0,6.7
	c12.8,12.8,19.9,30.1,19.9,48.2c0,18.1-7.2,35.4-19.9,48.2c-0.9,0.9-1.4,2.1-1.4,3.4C270.3,308.8,270.8,310,271.7,310.9L271.7,310.9
	z M298.6,331.1c-0.9,0.9-1.4,2.1-1.4,3.4c0,1.3,0.5,2.5,1.4,3.4c0.9,0.9,2.1,1.4,3.4,1.4c1.3,0,2.5-0.5,3.4-1.4
	c45.1-45.1,45.1-118.5,0-163.6v0c-1.9-1.8-4.9-1.8-6.7,0c-1.8,1.8-1.9,4.8,0,6.7C340,222.3,340,289.7,298.6,331.1L298.6,331.1z
	 M239.5,343.7c1.7,1.5,3.9,2.3,6.2,2.3c1.4,0,2.7-0.3,4-0.9c1.7-0.7,3.1-2,4.1-3.5c1-1.5,1.5-3.3,1.5-5.1V174c0-2.4-0.9-4.8-2.6-6.6
	c-1.7-1.8-4-2.8-6.4-2.9c-2.4-0.1-4.8,0.7-6.7,2.3l-58.4,50.4h-36.9c-2.5,0-4.9,1-6.7,2.8c-1.8,1.8-2.8,4.2-2.8,6.7v57.1
	c0,2.5,1,4.9,2.8,6.7c1.8,1.8,4.2,2.8,6.7,2.8h36.9L239.5,343.7z"/>
</svg>
